<svg xmlns="http://www.w3.org/2000/svg" viewBox="0 0 256 241.83">
  <g id="Layer_2" data-name="Layer 2">
    <g id="Final_Icons" data-name="Final Icons">
      <path d="M56.92,77.41l.55,0c.37,6.59.68,13.17,1.16,19.75.15,2-.68,3.1-2.51,2.81-3.92-.62-7.95-1.1-11.64-2.45a14.91,14.91,0,0,0-13.21.93c-7,4-7.74,11.55-1.32,16.39,3.22,2.42,7.11,4,10.83,5.7,3.47,1.57,7.23,2.51,10.65,4.17,5.53,2.69,6.94,6.5,4.32,12a99,99,0,0,1-7.74,14c-10.5,15.26-24.07,26.27-42.78,29.91-4.92,1-6.65,5.55-4,10a16,16,0,0,0,9.36,6.75c7.1,2.17,14.33,4,21.56,5.7,1.81.42,2.61,1.12,3,2.83.59,2.8,1.3,5.58,2.06,8.34,1.21,4.36,3.46,6,8,5.64,3-.27,6-.95,9-1.47,12.39-2.1,24-.68,34.2,7.39,2.85,2.25,5.89,4.27,8.94,6.24,18.48,11.93,37.54,13,57,2.55a106.55,106.55,0,0,0,13.82-9.23c9.1-6.89,19.33-8.77,30.37-7.43,3.88.48,7.72,1.3,11.61,1.75,4.9.56,7.32-1.16,8.64-5.91.71-2.58,1.36-5.17,1.88-7.79.37-1.87,1.35-2.49,3.22-2.94,7.59-1.85,15.23-3.63,22.58-6.22a19.25,19.25,0,0,0,8.14-6.4c3.07-4,.82-8.59-4.11-9.76a78.61,78.61,0,0,1-9.37-2.58c-19.6-7.43-32.17-22-40.83-40.51-3-6.38-1.53-10.27,4.88-13.24,3.28-1.52,6.81-2.49,10.22-3.75,4.5-1.66,8.93-3.51,12.17-7.27,3.93-4.56,3.39-10.21-1.48-13.75s-9.86-4.55-15.64-2.11A48,48,0,0,1,200,100.14c-2.14.36-3-.7-2.91-3.24.6-10.59,1.21-21.19,1.23-31.79,0-22.66-9.91-40.46-28.73-52.44C143.83-3.73,116.63-3.82,90,10.15c-16.54,8.66-27.37,23-31,41.61C57.3,60.12,57.53,68.85,56.92,77.41Z"/>
    </g>
  </g>
</svg>
