<svg xmlns="http://www.w3.org/2000/svg" viewBox="0 0 256 215.89">
  <g id="Layer_2" data-name="Layer 2">
    <g id="Final_Icons" data-name="Final Icons">
      <path d="M128,59.56c-7.27-58.27,63.9-80.11,91.77-36.71,19.47-10.28,23.78-13.07,27.7-14.62-5,19.7-18.25,31.07-22.76,33.44L256,31.56C245.56,54,230.53,59.78,230.53,59.78,236.31,156.05,138,264.65,0,192.38c48.23,3.07,74.39-20.66,74.39-20.66-28.56.78-49.94-25.84-49.18-35.31,14.43,4.38,33.3,6.28,41.53.7C18.09,121.11,8.46,91,7.79,77.46,14.86,80.3,22.71,83.7,31.86,85-2.81,62.19,6.56,28.82,15.58,16.9,50.72,62.57,128,59.56,128,59.56Z"/>
    </g>
  </g>
</svg>
